<svg id="Iconly_Light-outline_Bag" data-name="Iconly/Light-outline/Bag" xmlns="http://www.w3.org/2000/svg" width="32" height="32" viewBox="0 0 32 32">
  <g id="Bag" transform="translate(3.334 2.667)">
    <path id="Bag-2" data-name="Bag" d="M7.264,26.666c-2.758,0-4.757-.7-5.941-2.075S-.253,21.14.158,18.416L1.173,10.59a6.29,6.29,0,0,1,1.786-3.5A4.522,4.522,0,0,1,6.1,5.843h0a6.574,6.574,0,0,1,13.067,0h.1c2.4,0,4.288,1.84,4.94,4.8l1.048,8.088A7.188,7.188,0,0,1,23.81,24.5a7.428,7.428,0,0,1-5.749,2.164ZM3.088,10.889,2.08,18.683c-.329,2.18-.091,3.7.728,4.656s2.237,1.4,4.456,1.4h10.8a5.454,5.454,0,0,0,4.319-1.544,5.5,5.5,0,0,0,.911-4.529l-.991-7.69c-.444-2-1.577-3.2-3.031-3.2H6.1C4.581,7.774,3.453,8.938,3.088,10.889Zm14.13-5.046a4.633,4.633,0,0,0-9.157,0Zm-.79,7.442a.965.965,0,0,1-.132-1.921l.132-.008h.059a.965.965,0,0,1,.132,1.921l-.132.008Zm-7.541,0a.965.965,0,0,1-.132-1.921l.132-.008h.059a.965.965,0,0,1,.132,1.921l-.132.008Z" transform="translate(0 0)" fill="#4d75b8" stroke="#4d75b8" stroke-width="0.2"/>
  </g>
</svg>
