<svg xmlns="http://www.w3.org/2000/svg" width="14.669" height="14.669" viewBox="0 0 14.669 14.669">
  <g id="_003-logo" data-name="003-logo" transform="translate(0 0)">
    <path id="Path_38" data-name="Path 38" d="M9.61,5.838A3.764,3.764,0,1,0,13.374,9.6,3.763,3.763,0,0,0,9.61,5.838Zm0,6.207A2.443,2.443,0,1,1,12.053,9.6,2.442,2.442,0,0,1,9.61,12.045Z" transform="translate(-2.273 -2.27)" fill="#8d95a6"/>
    <path id="Path_39" data-name="Path 39" d="M10.359.047c-1.35-.063-4.692-.06-6.043,0A4.383,4.383,0,0,0,1.238,1.233C-.173,2.644.007,4.545.007,7.332c0,2.853-.159,4.71,1.23,6.1,1.416,1.416,3.345,1.23,6.1,1.23,2.826,0,3.8,0,4.8-.385a4.014,4.014,0,0,0,2.485-3.923c.064-1.35.06-4.692,0-6.043A4.043,4.043,0,0,0,10.359.047ZM12.495,12.5c-.925.925-2.208.842-5.176.842-3.056,0-4.282.045-5.176-.851C1.114,11.464,1.3,9.818,1.3,7.323,1.3,3.946.953,1.514,4.343,1.34,5.121,1.313,5.35,1.3,7.311,1.3l.028.018c3.257,0,5.813-.341,5.966,3.048.035.773.043,1.005.043,2.963,0,3.021.057,4.253-.852,5.167Z" transform="translate(0 -0.001)" fill="#8d95a6"/>
    <circle id="Ellipse_5" data-name="Ellipse 5" cx="0.88" cy="0.88" r="0.88" transform="translate(10.37 2.54)" fill="#8d95a6"/>
  </g>
</svg>
