<svg xmlns="http://www.w3.org/2000/svg" width="19.55" height="19.55" viewBox="0 0 19.55 19.55">
  <g id="seminar" transform="translate(0.15 0.15)">
    <g id="Group_10208" data-name="Group 10208" transform="translate(5.133 13.475)">
      <g id="Group_10207" data-name="Group 10207">
        <path id="Path_6084" data-name="Path 6084" d="M140.8,339.238a1.587,1.587,0,0,0,.353-.992V337.6a1.6,1.6,0,0,0-3.208,0v.642a.889.889,0,0,1-.642,1.614.889.889,0,0,1-.642-1.614V337.6a1.6,1.6,0,0,0-3.208,0v.642a.889.889,0,0,1-.642,1.614.889.889,0,0,1-.642-1.614V337.6a1.6,1.6,0,0,0-3.208,0v.642a1.587,1.587,0,0,0,.353.992A1.6,1.6,0,0,0,128,340.813v.963h.642v-.963a.962.962,0,0,1,.962-.963h1.925a.962.962,0,0,1,.963.963v.963h.642v-.963a.962.962,0,0,1,.963-.963h1.925a.963.963,0,0,1,.963.963v.963h.642v-.963a.962.962,0,0,1,.962-.963h1.925a.962.962,0,0,1,.962.963v.963h.642v-.963A1.6,1.6,0,0,0,140.8,339.238Zm-9.272-.992a.963.963,0,0,1-1.925,0V337.6a.963.963,0,0,1,1.925,0Zm4.492,0a.962.962,0,1,1-1.925,0V337.6a.962.962,0,0,1,1.925,0Zm4.492,0a.963.963,0,0,1-1.925,0V337.6a.963.963,0,0,1,1.925,0Z" transform="translate(-128 -336)" fill="#4d75b8" stroke="#4d75b8" stroke-width="0.3"/>
      </g>
    </g>
    <g id="Group_10210" data-name="Group 10210" transform="translate(0 3.208)">
      <g id="Group_10209" data-name="Group 10209">
        <path id="Path_6085" data-name="Path 6085" d="M7.817,83.231a.32.32,0,0,0-.117-.022H6.417a.321.321,0,0,0-.3.211l-.34.935-.011-.03a1.7,1.7,0,0,0-1.593-1.116H4.162a1.587,1.587,0,0,0,.329-.963V81.6a1.6,1.6,0,1,0-3.208,0v.642a1.587,1.587,0,0,0,.329.963H1.6a1.606,1.606,0,0,0-1.6,1.6v3.85a.321.321,0,0,0,.321.321h.963V92.1L.7,92.976a.321.321,0,0,0,.267.5h3.85a.321.321,0,0,0,.267-.5L4.492,92.1V86.172l.081.16a1.312,1.312,0,0,0,2.391-.1l.521-1.3L8,83.647A.321.321,0,0,0,7.817,83.231ZM1.925,81.6a.963.963,0,1,1,1.925,0v.642a.963.963,0,1,1-1.925,0Zm-.642,6.737H.642V87.7h.642Zm1.925,4.492v-3.85H2.567v3.85h-1l.309-.464a.323.323,0,0,0,.054-.178v-3.85H3.85v3.85a.323.323,0,0,0,.054.178l.309.464ZM6.368,86a.67.67,0,0,1-1.221.051L4.46,84.669a.321.321,0,0,0-.61.143V87.7H1.925V84.813a.321.321,0,0,0-.642,0v2.246H.642V84.813A.962.962,0,0,1,1.6,83.85h.963v3.208h.642V83.85h.963a1.056,1.056,0,0,1,.99.693l.313.86a.321.321,0,0,0,.6,0l.1-.27h.538Zm.6-1.5H6.408l.233-.642h.585Z" transform="translate(0 -80)" fill="#4d75b8" stroke="#4d75b8" stroke-width="0.3"/>
      </g>
    </g>
    <g id="Group_10212" data-name="Group 10212" transform="translate(5.133)">
      <g id="Group_10211" data-name="Group 10211">
        <path id="Path_6086" data-name="Path 6086" d="M141.8,1.925a.321.321,0,0,0,.321-.321V.321A.321.321,0,0,0,141.8,0H128.321A.321.321,0,0,0,128,.321V1.6a.321.321,0,0,0,.321.321h.321v3.85h.642V1.925h11.55V8.983H130.567v.642h4.171v1.418l-2.085,1.191.318.557,1.767-1.009v1.051h.642V11.782l1.765,1.009.318-.557-2.083-1.191V9.625h6.738V8.983h-.642V1.925Zm-13.154-.642V.642h12.833v.642Z" transform="translate(-128)" fill="#4d75b8" stroke="#4d75b8" stroke-width="0.3"/>
      </g>
    </g>
  </g>
</svg>
