<svg id="_002-logotype" data-name="002-logotype" xmlns="http://www.w3.org/2000/svg" width="15.647" height="14.669" viewBox="0 0 15.647 14.669">
  <g id="Group_481" data-name="Group 481" transform="translate(0 0)">
    <path id="Path_37" data-name="Path 37" d="M15.34,26.942a4.519,4.519,0,0,1-3.073-2.578.147.147,0,0,0-.009-.018.647.647,0,0,1-.073-.532c.114-.268.553-.407.842-.5.084-.026.163-.052.229-.077a1.771,1.771,0,0,0,.624-.373.593.593,0,0,0,.19-.426.671.671,0,0,0-.5-.582.909.909,0,0,0-.34-.065.758.758,0,0,0-.317.065,1.778,1.778,0,0,1-.652.186A.6.6,0,0,1,12.041,22c.006-.1.012-.2.019-.3l0-.045a7.746,7.746,0,0,0-.2-3.159,4.249,4.249,0,0,0-.957-1.37,4,4,0,0,0-1.145-.755,4.525,4.525,0,0,0-1.787-.377H7.935l-.269,0a4.542,4.542,0,0,0-1.789.377,3.981,3.981,0,0,0-1.141.754,4.263,4.263,0,0,0-.954,1.367,7.752,7.752,0,0,0-.2,3.157v0c.007.113.015.232.022.347a.627.627,0,0,1-.256.048,1.7,1.7,0,0,1-.7-.187.626.626,0,0,0-.265-.055.937.937,0,0,0-.468.131.648.648,0,0,0-.332.423.584.584,0,0,0,.223.549,1.923,1.923,0,0,0,.583.333c.067.026.146.051.229.077.289.092.729.231.843.5a.651.651,0,0,1-.074.532.138.138,0,0,0-.008.018,5.178,5.178,0,0,1-.788,1.219,4.423,4.423,0,0,1-.951.839,3.5,3.5,0,0,1-1.335.519A.365.365,0,0,0,0,27.323a.463.463,0,0,0,.038.159h0a.977.977,0,0,0,.53.453,6.053,6.053,0,0,0,1.531.4,1.857,1.857,0,0,1,.094.336c.025.117.052.239.09.367a.4.4,0,0,0,.42.305,2.043,2.043,0,0,0,.36-.05,4.093,4.093,0,0,1,.821-.093,3.566,3.566,0,0,1,.587.05,2.787,2.787,0,0,1,1.1.566,3.549,3.549,0,0,0,2.161.842l.079,0c.031,0,.071,0,.112,0a3.555,3.555,0,0,0,2.161-.841h0a2.8,2.8,0,0,1,1.1-.565,3.565,3.565,0,0,1,.587-.05,4.112,4.112,0,0,1,.821.087,1.983,1.983,0,0,0,.36.044h.018a.4.4,0,0,0,.4-.3c.037-.126.064-.244.09-.364a1.921,1.921,0,0,1,.093-.334,6.1,6.1,0,0,0,1.531-.4.981.981,0,0,0,.529-.452.465.465,0,0,0,.039-.161A.364.364,0,0,0,15.34,26.942Z" transform="translate(0 -15.988)" fill="#8d95a6"/>
  </g>
</svg>
