<svg xmlns="http://www.w3.org/2000/svg" width="21.051" height="21.564" viewBox="0 0 21.051 21.564">
  <g id="_05-support" data-name="05-support" transform="translate(-4 -4.436)">
    <g id="linear_color" data-name="linear color" transform="translate(4 4.436)">
      <path id="Path_6094" data-name="Path 6094" d="M21.873,310.11c-.174-.087-1.728-.824-2.649.1-.032.032-.063.064-.094.1a1.95,1.95,0,0,0-1.961.348,9.174,9.174,0,0,0-1.327,1.923l-.942.188-2.522-1.681h1.729a2.383,2.383,0,0,0,2.258-1.312,3.045,3.045,0,0,0,.311-1.258.514.514,0,0,0-.514-.514H4.514a.514.514,0,1,0,0,1.028H15.558a1.82,1.82,0,0,1-.126.31,1.355,1.355,0,0,1-1.326.718H10.68A.515.515,0,0,0,10.4,311l4.111,2.741a.514.514,0,0,0,.386.076l3.426-.685a.514.514,0,0,0,.359-.274,9.711,9.711,0,0,1,1.274-1.922,1.079,1.079,0,0,1,.976-.081l-1.693,3.387L14.1,315.523l-6.048-1.344a.514.514,0,0,0-.111-.012H4.514a.514.514,0,1,0,0,1.028H7.883l6.112,1.358a.514.514,0,0,0,.236,0l5.481-1.37a.514.514,0,0,0,.335-.269L22.1,310.8a.514.514,0,0,0-.23-.689Zm-4,2.059-.684.137a5.77,5.77,0,0,1,.7-.927.7.7,0,0,1,.536-.152C18.191,311.6,17.993,311.949,17.875,312.169Z" transform="translate(-4 -295.001)" fill="#4d75b8"/>
      <path id="Path_6095" data-name="Path 6095" d="M126.883,11.5l.671.083.169.408-.415.533a.514.514,0,0,0,.042.679l1.416,1.416a.514.514,0,0,0,.679.042l.533-.415.408.169.083.671a.514.514,0,0,0,.51.451h2a.514.514,0,0,0,.51-.451l.083-.671.408-.169.533.415a.514.514,0,0,0,.679-.042l1.416-1.416a.514.514,0,0,0,.042-.679l-.415-.533.169-.408.671-.083a.514.514,0,0,0,.451-.51v-2a.514.514,0,0,0-.451-.51l-.671-.083-.169-.408.415-.533a.514.514,0,0,0-.042-.679L135.2,5.353a.514.514,0,0,0-.679-.042l-.533.415-.408-.169-.083-.671a.514.514,0,0,0-.51-.451h-2a.514.514,0,0,0-.51.451l-.083.671-.408.169-.533-.415a.514.514,0,0,0-.679.042l-1.416,1.416a.514.514,0,0,0-.042.679l.415.533-.169.408-.671.083a.514.514,0,0,0-.451.51v2a.514.514,0,0,0,.451.51Zm.577-2.059.517-.064a.514.514,0,0,0,.412-.313l.4-.962a.514.514,0,0,0-.069-.513l-.32-.411.774-.774.411.32a.514.514,0,0,0,.513.07l.962-.4a.514.514,0,0,0,.313-.412l.064-.517h1.094l.064.517a.514.514,0,0,0,.313.412l.962.4a.514.514,0,0,0,.513-.07l.411-.32.774.774-.32.411a.514.514,0,0,0-.07.513l.4.962a.514.514,0,0,0,.412.313l.517.064v1.094l-.517.064a.514.514,0,0,0-.412.313l-.4.962a.514.514,0,0,0,.07.513l.32.411-.774.774-.411-.32a.514.514,0,0,0-.513-.07l-.962.4a.514.514,0,0,0-.313.412l-.064.517h-1.094l-.064-.517a.514.514,0,0,0-.313-.412l-.962-.4a.514.514,0,0,0-.513.07l-.411.32-.774-.774.32-.411a.514.514,0,0,0,.07-.513l-.4-.962a.514.514,0,0,0-.412-.313l-.517-.064Z" transform="translate(-121.189 -4.436)" fill="#4d75b8"/>
      <path id="Path_6096" data-name="Path 6096" d="M203.925,84.288a2.328,2.328,0,1,0-1.647-.681A2.328,2.328,0,0,0,203.925,84.288ZM203,81.039a1.3,1.3,0,1,1-.383.92A1.3,1.3,0,0,1,203,81.039Z" transform="translate(-193.133 -76.411)" fill="#4d75b8"/>
      <path id="Path_6097" data-name="Path 6097" d="M414.349,99.546a.514.514,0,0,0,0,.727.854.854,0,0,1,0,1.209.514.514,0,0,0,.726.727,1.882,1.882,0,0,0,0-2.663A.514.514,0,0,0,414.349,99.546Z" transform="translate(-396.633 -95.329)" fill="#4d75b8"/>
      <path id="Path_6098" data-name="Path 6098" d="M449.017,65.64a.514.514,0,0,0-.726.727,2.906,2.906,0,0,1,0,4.113.514.514,0,1,0,.726.727,3.934,3.934,0,0,0,0-5.567Z" transform="translate(-429.12 -62.875)" fill="#4d75b8"/>
      <path id="Path_6099" data-name="Path 6099" d="M65.343,102.356a.514.514,0,0,0,.363-.877.854.854,0,0,1,0-1.209.514.514,0,0,0-.726-.727,1.882,1.882,0,0,0,0,2.663A.512.512,0,0,0,65.343,102.356Z" transform="translate(-61.84 -95.326)" fill="#4d75b8"/>
      <path id="Path_6100" data-name="Path 6100" d="M17.946,71.357a.514.514,0,0,0,.363-.877,2.906,2.906,0,0,1,0-4.113.514.514,0,1,0-.726-.727,3.934,3.934,0,0,0,0,5.567A.512.512,0,0,0,17.946,71.357Z" transform="translate(-15.896 -62.875)" fill="#4d75b8"/>
    </g>
  </g>
</svg>
