<svg xmlns="http://www.w3.org/2000/svg" width="18.055" height="14.669" viewBox="0 0 18.055 14.669">
  <g id="_001-twitter" data-name="001-twitter" transform="translate(0 0)">
    <g id="Group_480" data-name="Group 480" transform="translate(0 0)">
      <path id="Path_36" data-name="Path 36" d="M18.055,49.737a7.717,7.717,0,0,1-2.133.585,3.681,3.681,0,0,0,1.628-2.046,7.4,7.4,0,0,1-2.347.9A3.7,3.7,0,0,0,8.8,51.7a3.811,3.811,0,0,0,.086.844,10.477,10.477,0,0,1-7.629-3.872,3.7,3.7,0,0,0,1.137,4.947,3.655,3.655,0,0,1-1.672-.456v.041a3.718,3.718,0,0,0,2.965,3.637,3.7,3.7,0,0,1-.97.122,3.273,3.273,0,0,1-.7-.063A3.737,3.737,0,0,0,5.475,59.48,7.437,7.437,0,0,1,.886,61.059,6.933,6.933,0,0,1,0,61.008a10.42,10.42,0,0,0,5.678,1.661A10.462,10.462,0,0,0,16.213,52.137c0-.164-.006-.322-.014-.478A7.384,7.384,0,0,0,18.055,49.737Z" transform="translate(0 -48)" fill="#8d95a6"/>
    </g>
  </g>
</svg>
